# xmcd
#
# Track frame offsets:
#	150
#	17335
#	34357
#
# Disc length: 774 seconds
#
# Revision: 1
# Processed by: cddbd v1.5.1PL0 Copyright (c) Steve Scherf et al.
# Submitted via: CDex 1.50Beta5
#
DISCID=19030403
DTITLE=真空メロウ - 魔9
DYEAR=2002
DGENRE=Rock
TTITLE0=魔9
TTITLE1=空っぽワンダー
TTITLE2=プールサイド
EXTD=
EXTT0=
EXTT1=
EXTT2=
PLAYORDER=
